<?xml version="1.0" encoding="UTF-8" standalone="no"?>
<!-- Created with Inkscape (http://www.inkscape.org/) -->

<svg
   xmlns:dc="http://purl.org/dc/elements/1.1/"
   xmlns:cc="http://creativecommons.org/ns#"
   xmlns:rdf="http://www.w3.org/1999/02/22-rdf-syntax-ns#"
   xmlns:svg="http://www.w3.org/2000/svg"
   xmlns="http://www.w3.org/2000/svg"
   xmlns:sodipodi="http://sodipodi.sourceforge.net/DTD/sodipodi-0.dtd"
   xmlns:inkscape="http://www.inkscape.org/namespaces/inkscape"
   id="svg2"
   version="1.1"
   inkscape:version="0.91 r13725"
   xml:space="preserve"
   width="270"
   height="100"
   viewBox="0 0 270 100"
   sodipodi:docname="block_MIMO3_ISIT.svg"><sodipodi:namedview
     pagecolor="#ffffff"
     bordercolor="#666666"
     borderopacity="1"
     objecttolerance="10"
     gridtolerance="10"
     guidetolerance="10"
     inkscape:pageopacity="0"
     inkscape:pageshadow="2"
     inkscape:window-width="2556"
     inkscape:window-height="1395"
     id="namedview4"
     showgrid="false"
     inkscape:zoom="6.8055189"
     inkscape:cx="132.86625"
     inkscape:cy="55.029427"
     inkscape:window-x="5"
     inkscape:window-y="1"
     inkscape:window-maximized="0"
     inkscape:current-layer="g10" /><metadata
     id="metadata8"><rdf:RDF><cc:Work
         rdf:about=""><dc:format>image/svg+xml</dc:format><dc:type
           rdf:resource="http://purl.org/dc/dcmitype/StillImage" /><dc:title></dc:title></cc:Work></rdf:RDF></metadata><defs
     id="defs6" /><g
     transform="matrix(1.25,0,0,-1.25,0,100)"
     inkscape:label="block_MIMO2_ISIT"
     inkscape:groupmode="layer"
     id="g10"><g
       id="g14"
       transform="matrix(1,0,0,-1,0,80)"><path
         d="m 97.879,40 35.992,0"
         style="fill:none;stroke:#000000;stroke-width:2.15646601;stroke-linecap:butt;stroke-linejoin:miter;stroke-miterlimit:4;stroke-dasharray:none;stroke-opacity:1"
         id="path16"
         inkscape:connector-curvature="0" /></g><g
       id="g18"
       transform="matrix(1,0,0,-1,0,80)"><path
         d="m 138.848,40 -7.461,4.312 0,-8.624 7.461,4.312 z"
         style="fill:#000000;fill-opacity:1;fill-rule:evenodd;stroke:#000000;stroke-width:1.078233;stroke-linecap:butt;stroke-linejoin:miter;stroke-miterlimit:4;stroke-dasharray:none;stroke-opacity:1"
         id="path20"
         inkscape:connector-curvature="0" /></g><g
       id="g22"
       transform="matrix(1,0,0,-1,0,80)"><path
         d="m 44.711,0.711 54.578,0 0,78.578 -54.578,0 0,-78.578 z"
         style="fill:#ffffff;fill-opacity:1;fill-rule:nonzero;stroke:#000000;stroke-width:1.42110503;stroke-linecap:butt;stroke-linejoin:miter;stroke-miterlimit:4;stroke-dasharray:none;stroke-opacity:1"
         id="path24"
         inkscape:connector-curvature="0" /></g><g
       id="g26"
       transform="matrix(1,0,0,-1,0,80)"><path
         d="m 23.199,24.398 16.977,0"
         style="fill:none;stroke:#000000;stroke-width:1.60000002;stroke-linecap:butt;stroke-linejoin:miter;stroke-miterlimit:4;stroke-dasharray:none;stroke-opacity:1"
         id="path28"
         inkscape:connector-curvature="0" /></g><g
       id="g30"
       transform="matrix(1,0,0,-1,0,80)"><path
         d="m 43.867,24.398 -5.535,3.204 0,-6.403 5.535,3.199 z"
         style="fill:#000000;fill-opacity:1;fill-rule:evenodd;stroke:#000000;stroke-width:0.80000001;stroke-linecap:butt;stroke-linejoin:miter;stroke-miterlimit:4;stroke-dasharray:none;stroke-opacity:1"
         id="path32"
         inkscape:connector-curvature="0" /></g><g
       id="g34"
       transform="matrix(1,0,0,-1,0,80)"><path
         d="m 140.844,0.883 30.312,0 0,78.316 -30.312,0 0,-78.316 z"
         style="fill:#ffffff;fill-opacity:1;fill-rule:nonzero;stroke:#000000;stroke-width:1.60000002;stroke-linecap:butt;stroke-linejoin:miter;stroke-miterlimit:4;stroke-dasharray:none;stroke-opacity:1"
         id="path36"
         inkscape:connector-curvature="0" /></g><path
       d="m 122.281,51.773 0.016,0.036 0.015,0.027 0.012,0.016 0.008,0.011 0.008,0.016 0.047,0.047 0.015,0.008 0.016,0.011 0.016,0.008 0.019,0.012 0.07,0.023 0.032,0.008 0.031,0.004 0.031,0.008 0.016,0 0.039,0.008 0.019,0 0.02,0.004 0.023,0.003 0.043,0 0.028,0.004 0.078,0 0.027,0.004 0.028,0 0.027,0.004 0.234,0 0,0.586 c -0.297,-0.027 -0.668,-0.039 -0.98,-0.039 -0.309,0 -0.867,0.027 -1.129,0.039 l 0,-0.586 c 0.027,0 0.586,0 0.586,-0.144 0,-0.02 -0.055,-0.137 -0.063,-0.153 l -1.425,-3.054 -1.579,3.351 0.668,0 0,0.586 c -0.406,-0.027 -1.527,-0.039 -1.543,-0.039 -0.343,0 -0.902,0.027 -1.41,0.039 l 0,-0.586 0.789,0 2.325,-4.93 -0.282,-0.597 c -0.277,-0.594 -0.672,-1.438 -1.558,-1.438 -0.172,0 -0.2,0.008 -0.297,0.047 0.109,0.051 0.398,0.223 0.398,0.66 0,0.407 -0.301,0.707 -0.719,0.707 -0.347,0 -0.71,-0.238 -0.71,-0.718 0,-0.633 0.585,-1.145 1.328,-1.145 0.961,0 1.679,0.77 2.015,1.481 l 2.668,5.671 z"
       style="fill:#000000;fill-opacity:1;fill-rule:nonzero;stroke:none"
       id="path38"
       inkscape:connector-curvature="0" /><g
       id="g40"
       transform="matrix(1,0,0,-1,0,80)"><path
         d="m 23.199,72.398 16.981,0"
         style="fill:none;stroke:#000000;stroke-width:1.60000002;stroke-linecap:butt;stroke-linejoin:miter;stroke-miterlimit:4;stroke-dasharray:none;stroke-opacity:1"
         id="path42"
         inkscape:connector-curvature="0" /></g><g
       id="g44"
       transform="matrix(1,0,0,-1,0,80)"><path
         d="m 43.875,72.398 -5.539,3.204 0,-6.403 5.539,3.199 z"
         style="fill:#000000;fill-opacity:1;fill-rule:evenodd;stroke:#000000;stroke-width:0.80000001;stroke-linecap:butt;stroke-linejoin:miter;stroke-miterlimit:4;stroke-dasharray:none;stroke-opacity:1"
         id="path46"
         inkscape:connector-curvature="0" /></g><g
       id="g48"
       transform="matrix(1,0,0,-1,0,80)"><path
         d="m 23.199,8.398 16.981,0"
         style="fill:none;stroke:#000000;stroke-width:1.60000002;stroke-linecap:butt;stroke-linejoin:miter;stroke-miterlimit:4;stroke-dasharray:none;stroke-opacity:1"
         id="path50"
         inkscape:connector-curvature="0" /></g><g
       id="g52"
       transform="matrix(1,0,0,-1,0,80)"><path
         d="m 43.875,8.398 -5.539,3.204 0,-6.403 5.539,3.199 z"
         style="fill:#000000;fill-opacity:1;fill-rule:evenodd;stroke:#000000;stroke-width:0.80000001;stroke-linecap:butt;stroke-linejoin:miter;stroke-miterlimit:4;stroke-dasharray:none;stroke-opacity:1"
         id="path54"
         inkscape:connector-curvature="0" /></g><path
       d="m 11.691,73.852 -0.027,-0.004 -0.027,0 -0.028,-0.004 -0.082,-0.024 -0.047,-0.015 -0.046,-0.024 -0.02,-0.015 -0.023,-0.012 -0.059,-0.047 -0.051,-0.051 -0.015,-0.019 -0.024,-0.039 -0.015,-0.02 -0.012,-0.019 -0.008,-0.024 -0.008,-0.019 -0.008,-0.024 -0.007,-0.019 -0.004,-0.024 -0.004,-0.019 -0.004,-0.028 0,-0.019 -0.004,-0.024 c 0,-0.152 0.098,-0.312 0.34,-0.312 0.238,0 0.496,0.183 0.496,0.605 0,0.493 -0.465,0.938 -1.293,0.938 -1.438,0 -1.84,-1.11 -1.84,-1.59 0,-0.848 0.809,-1.012 1.121,-1.078 0.567,-0.11 1.133,-0.231 1.133,-0.824 0,-0.286 -0.25,-1.2 -1.555,-1.2 -0.156,0 -0.992,0 -1.246,0.579 0.418,-0.055 0.688,0.273 0.688,0.574 0,0.25 -0.176,0.383 -0.403,0.383 C 8.324,71.434 8,71.207 8,70.715 8,70.094 8.621,69.66 9.559,69.66 c 1.761,0 2.187,1.317 2.187,1.805 0,0.39 -0.207,0.664 -0.336,0.797 -0.297,0.304 -0.613,0.359 -1.09,0.457 -0.394,0.086 -0.828,0.164 -0.828,0.652 0,0.317 0.262,0.981 1.219,0.981 0.269,0 0.816,-0.075 0.98,-0.5 z"
       style="fill:#000000;fill-opacity:1;fill-rule:nonzero;stroke:none"
       id="path56"
       inkscape:connector-curvature="0" /><path
       d="m 16.477,70.582 0,0.152 -0.004,0.149 -0.008,0.144 -0.008,0.141 -0.016,0.137 -0.011,0.129 -0.02,0.125 -0.027,0.125 -0.028,0.117 -0.031,0.117 -0.035,0.113 -0.043,0.106 -0.047,0.109 -0.054,0.106 -0.055,0.101 -0.063,0.102 c -0.234,0.351 -0.707,0.656 -1.32,0.656 l 0,-0.215 c 0.414,0 0.813,-0.25 0.949,-0.695 0.121,-0.41 0.129,-0.957 0.129,-1.621 0,-0.563 0,-1.125 -0.101,-1.606 -0.153,-0.691 -0.668,-0.859 -0.977,-0.859 -0.348,0 -0.812,0.203 -0.965,0.828 -0.105,0.449 -0.105,1.074 -0.105,1.637 0,0.554 0,1.136 0.113,1.554 0.16,0.598 0.648,0.762 0.957,0.762 l 0,0.215 c -1.766,0 -1.766,-2.078 -1.766,-2.629 0,-0.547 0,-2.582 1.766,-2.582 1.77,0 1.77,2.035 1.77,2.582 z"
       style="fill:#000000;fill-opacity:1;fill-rule:nonzero;stroke:none"
       id="path58"
       inkscape:connector-curvature="0" /><path
       d="m 19.422,72.996 0,0.102 -0.004,0.007 0,0.02 -0.004,0.008 0,0.004 -0.004,0.008 0,0.011 -0.008,0.004 -0.007,0.016 -0.004,0.004 -0.008,0.004 -0.004,0.007 -0.012,0.004 -0.004,0 -0.008,0.004 -0.011,0.004 -0.024,0 -0.004,0.004 -0.027,0 -0.008,0.004 -0.086,0 C 18.707,72.73 18.016,72.723 17.703,72.723 l 0,-0.274 c 0.184,0 0.688,0 1.102,0.211 l 0,-3.883 c 0,-0.254 0,-0.351 -0.762,-0.351 l -0.285,0 0,-0.274 c 0.137,0.008 1.07,0.032 1.355,0.032 0.235,0 1.196,-0.024 1.364,-0.032 l 0,0.274 -0.289,0 c -0.766,0 -0.766,0.097 -0.766,0.351 l 0,4.219 z"
       style="fill:#000000;fill-opacity:1;fill-rule:nonzero;stroke:none"
       id="path60"
       inkscape:connector-curvature="0" /><path
       d="m 11.691,57.852 -0.027,-0.004 -0.027,0 -0.028,-0.004 -0.082,-0.024 -0.047,-0.015 -0.046,-0.024 -0.02,-0.015 -0.023,-0.012 -0.059,-0.047 -0.051,-0.051 -0.015,-0.019 -0.024,-0.039 -0.015,-0.02 -0.012,-0.019 -0.008,-0.024 -0.008,-0.019 -0.008,-0.024 -0.007,-0.019 -0.004,-0.024 -0.004,-0.019 -0.004,-0.028 0,-0.019 -0.004,-0.024 c 0,-0.152 0.098,-0.312 0.34,-0.312 0.238,0 0.496,0.183 0.496,0.605 0,0.493 -0.465,0.938 -1.293,0.938 -1.438,0 -1.84,-1.11 -1.84,-1.59 0,-0.848 0.809,-1.012 1.121,-1.078 0.567,-0.11 1.133,-0.231 1.133,-0.824 0,-0.286 -0.25,-1.2 -1.555,-1.2 -0.156,0 -0.992,0 -1.246,0.579 0.418,-0.055 0.688,0.273 0.688,0.574 0,0.25 -0.176,0.383 -0.403,0.383 C 8.324,55.434 8,55.207 8,54.715 8,54.094 8.621,53.66 9.559,53.66 c 1.761,0 2.187,1.317 2.187,1.805 0,0.39 -0.207,0.664 -0.336,0.797 -0.297,0.304 -0.613,0.359 -1.09,0.457 -0.394,0.086 -0.828,0.164 -0.828,0.652 0,0.317 0.262,0.981 1.219,0.981 0.269,0 0.816,-0.075 0.98,-0.5 z"
       style="fill:#000000;fill-opacity:1;fill-rule:nonzero;stroke:none"
       id="path62"
       inkscape:connector-curvature="0" /><path
       d="m 16.477,54.582 0,0.152 -0.004,0.149 -0.008,0.144 -0.008,0.141 -0.016,0.137 -0.011,0.129 -0.02,0.125 -0.027,0.125 -0.028,0.117 -0.031,0.117 -0.035,0.113 -0.043,0.106 -0.047,0.109 -0.054,0.106 -0.055,0.101 -0.063,0.102 c -0.234,0.351 -0.707,0.656 -1.32,0.656 l 0,-0.215 c 0.414,0 0.813,-0.25 0.949,-0.695 0.121,-0.41 0.129,-0.957 0.129,-1.621 0,-0.563 0,-1.125 -0.101,-1.606 -0.153,-0.691 -0.668,-0.859 -0.977,-0.859 -0.348,0 -0.812,0.203 -0.965,0.828 -0.105,0.449 -0.105,1.074 -0.105,1.637 0,0.554 0,1.136 0.113,1.554 0.16,0.598 0.648,0.762 0.957,0.762 l 0,0.215 c -1.766,0 -1.766,-2.078 -1.766,-2.629 0,-0.547 0,-2.582 1.766,-2.582 1.77,0 1.77,2.035 1.77,2.582 z"
       style="fill:#000000;fill-opacity:1;fill-rule:nonzero;stroke:none"
       id="path64"
       inkscape:connector-curvature="0" /><path
       d="m 20.719,53.539 -0.262,0 c -0.019,-0.168 -0.098,-0.617 -0.195,-0.695 -0.059,-0.043 -0.645,-0.043 -0.754,-0.043 l -1.403,0 c 0.801,0.707 1.067,0.918 1.524,1.277 0.562,0.453 1.09,0.922 1.09,1.649 0,0.918 -0.809,1.484 -1.781,1.484 -0.946,0 -1.586,-0.664 -1.586,-1.363 0,-0.387 0.328,-0.43 0.406,-0.43 0.18,0 0.402,0.133 0.402,0.406 0,0.137 -0.055,0.403 -0.449,0.403 0.234,0.539 0.754,0.707 1.113,0.707 0.758,0 1.156,-0.59 1.156,-1.207 0,-0.665 -0.472,-1.192 -0.714,-1.461 L 17.43,52.449 c -0.078,-0.066 -0.078,-0.086 -0.078,-0.297 l 3.136,0 0.231,1.387 z"
       style="fill:#000000;fill-opacity:1;fill-rule:nonzero;stroke:none"
       id="path66"
       inkscape:connector-curvature="0" /><path
       d="m 3.691,10.801 -0.027,-0.004 -0.027,0 L 3.609,10.793 3.527,10.77 3.48,10.754 3.457,10.742 3.434,10.727 3.414,10.715 3.391,10.703 3.332,10.656 3.316,10.637 3.297,10.621 3.266,10.582 3.254,10.566 3.242,10.547 3.227,10.523 3.215,10.504 3.199,10.465 3.184,10.418 3.18,10.398 3.172,10.352 l 0,-0.02 -0.004,-0.023 c 0,-0.153 0.098,-0.317 0.34,-0.317 0.238,0 0.496,0.188 0.496,0.61 0,0.492 -0.465,0.933 -1.293,0.933 -1.438,0 -1.84,-1.105 -1.84,-1.586 0,-0.847 0.809,-1.011 1.121,-1.078 0.567,-0.109 1.133,-0.23 1.133,-0.828 0,-0.281 -0.25,-1.195 -1.555,-1.195 -0.156,0 -0.992,0 -1.246,0.578 C 0.742,7.371 1.012,7.695 1.012,8 1.012,8.25 0.836,8.383 0.609,8.383 0.324,8.383 0,8.152 0,7.664 0,7.043 0.621,6.605 1.559,6.605 3.32,6.605 3.746,7.926 3.746,8.414 3.746,8.805 3.539,9.078 3.41,9.211 3.113,9.512 2.797,9.566 2.32,9.664 1.926,9.75 1.492,9.828 1.492,10.32 c 0,0.317 0.262,0.977 1.219,0.977 0.269,0 0.816,-0.074 0.98,-0.496 z"
       style="fill:#000000;fill-opacity:1;fill-rule:nonzero;stroke:none"
       id="path68"
       inkscape:connector-curvature="0" /><path
       d="m 8.477,7.527 0,0.157 L 8.473,7.832 8.465,7.977 8.457,8.117 8.441,8.254 8.43,8.383 8.41,8.508 8.355,8.75 8.324,8.867 8.289,8.977 8.246,9.086 8.199,9.195 8.145,9.301 8.09,9.402 8.027,9.504 C 7.793,9.855 7.32,10.156 6.707,10.156 l 0,-0.211 C 7.121,9.945 7.52,9.695 7.656,9.25 7.777,8.84 7.785,8.293 7.785,7.629 7.785,7.066 7.785,6.5 7.684,6.023 7.531,5.332 7.016,5.164 6.707,5.164 6.359,5.164 5.895,5.367 5.742,5.992 5.637,6.441 5.637,7.066 5.637,7.629 c 0,0.555 0,1.137 0.113,1.551 0.16,0.601 0.648,0.765 0.957,0.765 l 0,0.211 c -1.766,0 -1.766,-2.078 -1.766,-2.629 0,-0.543 0,-2.578 1.766,-2.578 1.77,0 1.77,2.035 1.77,2.578 z"
       style="fill:#000000;fill-opacity:1;fill-rule:nonzero;stroke:none"
       id="path70"
       inkscape:connector-curvature="0" /><path
       d="m 16.648,9.684 0.008,0.027 0.008,0.047 0.008,0.023 0.008,0.02 0.004,0.019 0.007,0.02 0.008,0.015 0.008,0.02 0.008,0.016 0.008,0.011 0.011,0.016 0.012,0.012 0.008,0.011 0.031,0.024 0.016,0.008 0.039,0.015 0.019,0.004 0.036,0.012 0.015,0 0.024,0.008 0.031,0 0.031,0.008 0.035,0 0.016,0.003 0.058,0 0.02,0.004 0.168,0 c 0.16,0 0.262,0 0.262,0.161 0,0.113 -0.094,0.113 -0.231,0.113 l -1.035,0 c -0.223,0 -0.23,-0.004 -0.328,-0.149 L 13.02,5.809 12.273,10.098 c -0.043,0.199 -0.043,0.203 -0.269,0.203 l -1.09,0 c -0.152,0 -0.25,0 -0.25,-0.168 0,-0.106 0.09,-0.106 0.258,-0.106 0.125,0 0.148,0 0.289,-0.015 0.152,-0.012 0.168,-0.032 0.168,-0.106 0,-0.008 0,-0.051 -0.031,-0.168 L 10.391,5.918 C 10.32,5.66 10.203,5.398 9.598,5.375 c -0.063,0 -0.16,-0.008 -0.16,-0.168 0,-0.008 0.007,-0.105 0.113,-0.105 0.226,0 0.547,0.031 0.793,0.031 0.183,0 0.625,-0.031 0.808,-0.031 0.036,0 0.149,0 0.149,0.168 0,0.097 -0.098,0.105 -0.168,0.105 -0.485,0.016 -0.485,0.215 -0.485,0.32 0,0.032 0,0.067 0.032,0.192 l 1.011,4.051 0.004,0 0.821,-4.629 c 0.019,-0.141 0.035,-0.207 0.152,-0.207 0.105,0 0.164,0.086 0.219,0.168 l 3.199,4.742 0.004,-0.008 -1.07,-4.309 c -0.063,-0.257 -0.079,-0.32 -0.672,-0.32 -0.137,0 -0.231,0 -0.231,-0.168 0,-0.008 0,-0.105 0.125,-0.105 0.145,0 0.32,0.023 0.469,0.023 0.156,0 0.328,0.008 0.48,0.008 0.215,0 0.754,-0.031 0.969,-0.031 0.047,0 0.16,0 0.16,0.168 0,0.105 -0.09,0.105 -0.242,0.105 -0.012,0 -0.156,0 -0.289,0.016 -0.176,0.015 -0.176,0.039 -0.176,0.113 0,0.047 0.02,0.125 0.032,0.168 l 1.003,4.012 z"
       style="fill:#000000;fill-opacity:1;fill-rule:nonzero;stroke:none"
       id="path72"
       inkscape:connector-curvature="0" /><path
       d="m 21.875,7.672 -4.168,0 -0.125,-1.293 0.23,0 c 0.09,0.992 0.301,1.055 1.18,1.055 0.117,0 0.313,0 0.348,-0.004 0.152,-0.012 0.164,-0.032 0.164,-0.203 l 0,-2.758 c 0,-0.176 0,-0.231 -0.578,-0.231 l -0.274,0 0,-0.238 c 0.274,0.02 0.84,0.02 1.141,0.02 0.301,0 0.871,0 1.141,-0.02 l 0,0.238 -0.27,0 c -0.582,0 -0.582,0.055 -0.582,0.231 l 0,2.758 c 0,0.16 0.012,0.187 0.152,0.203 0.047,0.004 0.235,0.004 0.352,0.004 0.887,0 1.09,-0.059 1.184,-1.055 l 0.226,0 -0.121,1.293 z"
       style="fill:#000000;fill-opacity:1;fill-rule:nonzero;stroke:none"
       id="path74"
       inkscape:connector-curvature="0" /><path
       d="m 196.918,70.977 0.051,0.054 0.047,0.051 0.05,0.051 0.047,0.051 0.043,0.046 0.047,0.043 0.043,0.047 0.039,0.043 0.043,0.039 0.117,0.118 0.078,0.07 0.071,0.07 0.07,0.063 0.066,0.062 0.332,0.293 0.071,0.059 c 0,0.008 0.629,0.551 0.996,0.918 0.969,0.949 1.195,1.437 1.195,1.472 0,0.106 -0.097,0.106 -0.113,0.106 -0.074,0 -0.102,-0.02 -0.152,-0.113 -0.309,-0.489 -0.52,-0.653 -0.766,-0.653 -0.246,0 -0.367,0.156 -0.52,0.324 -0.195,0.239 -0.367,0.442 -0.707,0.442 -0.761,0 -1.23,-0.945 -1.23,-1.16 0,-0.051 0.031,-0.114 0.125,-0.114 0.09,0 0.109,0.051 0.129,0.114 0.195,0.468 0.785,0.48 0.867,0.48 0.215,0 0.406,-0.074 0.641,-0.156 0.41,-0.152 0.523,-0.152 0.789,-0.152 -0.371,-0.438 -1.227,-1.172 -1.418,-1.336 l -0.918,-0.856 C 196.359,70.77 196,70.191 196,70.117 c 0,-0.101 0.102,-0.101 0.121,-0.101 0.082,0 0.102,0.019 0.164,0.132 0.238,0.356 0.539,0.633 0.867,0.633 0.235,0 0.336,-0.093 0.59,-0.386 0.176,-0.215 0.36,-0.379 0.653,-0.379 1.007,0 1.601,1.296 1.601,1.57 0,0.051 -0.043,0.102 -0.121,0.102 -0.094,0 -0.113,-0.059 -0.145,-0.133 -0.234,-0.664 -0.886,-0.852 -1.222,-0.852 -0.203,0 -0.387,0.059 -0.602,0.129 -0.344,0.133 -0.5,0.172 -0.715,0.172 -0.019,0 -0.179,0 -0.273,-0.027 z"
       style="fill:#000000;fill-opacity:1;fill-rule:nonzero;stroke:none"
       id="path76"
       inkscape:connector-curvature="0" /><path
       d="m 202.496,76.625 0.727,0 c 0.132,0 0.226,0 0.226,0.16 0,0.098 -0.094,0.098 -0.211,0.098 l -0.676,0 0.262,1.055 c 0.004,0.035 0.02,0.07 0.02,0.101 0,0.129 -0.098,0.227 -0.242,0.227 -0.18,0 -0.286,-0.121 -0.336,-0.305 -0.047,-0.18 0.046,0.164 -0.274,-1.078 l -0.722,0 c -0.137,0 -0.227,0 -0.227,-0.156 0,-0.102 0.082,-0.102 0.215,-0.102 l 0.672,0 -0.418,-1.68 c -0.043,-0.179 -0.11,-0.433 -0.11,-0.527 0,-0.422 0.36,-0.676 0.766,-0.676 0.793,0 1.238,0.996 1.238,1.086 0,0.094 -0.09,0.094 -0.113,0.094 -0.082,0 -0.094,-0.016 -0.148,-0.133 -0.2,-0.449 -0.567,-0.851 -0.954,-0.851 -0.152,0 -0.25,0.093 -0.25,0.351 0,0.07 0.028,0.223 0.039,0.289 l 0.516,2.047 z"
       style="fill:#000000;fill-opacity:1;fill-rule:nonzero;stroke:none"
       id="path78"
       inkscape:connector-curvature="0" /><path
       d="m 202.688,72.133 0,0.07 -0.004,0.008 0,0.035 -0.004,0.004 0,0.016 -0.012,0.023 -0.004,0.004 -0.008,0.016 -0.004,0.003 -0.007,0.004 -0.008,0 -0.016,0.008 -0.008,0 -0.004,0.004 -0.023,0 -0.004,0.004 -0.109,0 c -0.457,-0.449 -1.102,-0.453 -1.395,-0.453 l 0,-0.258 c 0.172,0 0.641,0 1.031,0.195 l 0,-3.632 c 0,-0.235 0,-0.329 -0.711,-0.329 l -0.269,0 0,-0.253 c 0.125,0.003 1.004,0.027 1.269,0.027 0.219,0 1.118,-0.024 1.274,-0.027 l 0,0.253 -0.27,0 c -0.714,0 -0.714,0.094 -0.714,0.329 l 0,3.949 z"
       style="fill:#000000;fill-opacity:1;fill-rule:nonzero;stroke:none"
       id="path80"
       inkscape:connector-curvature="0" /><path
       d="m 196.918,54.977 0.051,0.054 0.047,0.051 0.05,0.051 0.047,0.051 0.043,0.046 0.047,0.043 0.043,0.047 0.039,0.043 0.043,0.039 0.117,0.118 0.078,0.07 0.071,0.07 0.07,0.063 0.066,0.062 0.332,0.293 0.071,0.059 c 0,0.008 0.629,0.551 0.996,0.918 0.969,0.949 1.195,1.437 1.195,1.472 0,0.106 -0.097,0.106 -0.113,0.106 -0.074,0 -0.102,-0.02 -0.152,-0.113 -0.309,-0.489 -0.52,-0.653 -0.766,-0.653 -0.246,0 -0.367,0.156 -0.52,0.324 -0.195,0.239 -0.367,0.442 -0.707,0.442 -0.761,0 -1.23,-0.945 -1.23,-1.16 0,-0.051 0.031,-0.114 0.125,-0.114 0.09,0 0.109,0.051 0.129,0.114 0.195,0.468 0.785,0.48 0.867,0.48 0.215,0 0.406,-0.074 0.641,-0.156 0.41,-0.152 0.523,-0.152 0.789,-0.152 -0.371,-0.438 -1.227,-1.172 -1.418,-1.336 l -0.918,-0.856 C 196.359,54.77 196,54.191 196,54.117 c 0,-0.101 0.102,-0.101 0.121,-0.101 0.082,0 0.102,0.019 0.164,0.132 0.238,0.356 0.539,0.633 0.867,0.633 0.235,0 0.336,-0.093 0.59,-0.386 0.176,-0.215 0.36,-0.379 0.653,-0.379 1.007,0 1.601,1.296 1.601,1.57 0,0.051 -0.043,0.102 -0.121,0.102 -0.094,0 -0.113,-0.059 -0.145,-0.133 -0.234,-0.664 -0.886,-0.852 -1.222,-0.852 -0.203,0 -0.387,0.059 -0.602,0.129 -0.344,0.133 -0.5,0.172 -0.715,0.172 -0.019,0 -0.179,0 -0.273,-0.027 z"
       style="fill:#000000;fill-opacity:1;fill-rule:nonzero;stroke:none"
       id="path82"
       inkscape:connector-curvature="0" /><path
       d="m 202.496,60.625 0.727,0 c 0.132,0 0.226,0 0.226,0.16 0,0.098 -0.094,0.098 -0.211,0.098 l -0.676,0 0.262,1.055 c 0.004,0.035 0.02,0.07 0.02,0.101 0,0.129 -0.098,0.227 -0.242,0.227 -0.18,0 -0.286,-0.121 -0.336,-0.305 -0.047,-0.18 0.046,0.164 -0.274,-1.078 l -0.722,0 c -0.137,0 -0.227,0 -0.227,-0.156 0,-0.102 0.082,-0.102 0.215,-0.102 l 0.672,0 -0.418,-1.68 c -0.043,-0.179 -0.11,-0.433 -0.11,-0.527 0,-0.422 0.36,-0.676 0.766,-0.676 0.793,0 1.238,0.996 1.238,1.086 0,0.094 -0.09,0.094 -0.113,0.094 -0.082,0 -0.094,-0.016 -0.148,-0.133 -0.2,-0.449 -0.567,-0.851 -0.954,-0.851 -0.152,0 -0.25,0.093 -0.25,0.351 0,0.07 0.028,0.223 0.039,0.289 l 0.516,2.047 z"
       style="fill:#000000;fill-opacity:1;fill-rule:nonzero;stroke:none"
       id="path84"
       inkscape:connector-curvature="0" /><path
       d="m 203.898,52.898 -0.242,0 c -0.019,-0.156 -0.094,-0.578 -0.183,-0.648 -0.059,-0.043 -0.606,-0.043 -0.707,-0.043 l -1.313,0 c 0.75,0.66 1,0.859 1.426,1.195 0.527,0.422 1.019,0.864 1.019,1.539 0,0.864 -0.753,1.391 -1.668,1.391 -0.882,0 -1.48,-0.617 -1.48,-1.273 0,-0.368 0.305,-0.399 0.379,-0.399 0.168,0 0.375,0.121 0.375,0.375 0,0.129 -0.051,0.379 -0.422,0.379 0.223,0.504 0.707,0.66 1.043,0.66 0.715,0 1.086,-0.551 1.086,-1.133 0,-0.617 -0.445,-1.109 -0.672,-1.367 l -1.719,-1.695 c -0.07,-0.063 -0.07,-0.082 -0.07,-0.277 l 2.938,0 0.21,1.296 z"
       style="fill:#000000;fill-opacity:1;fill-rule:nonzero;stroke:none"
       id="path86"
       inkscape:connector-curvature="0" /><path
       d="m 196.918,6.676 0.051,0.054 0.047,0.051 0.05,0.055 0.047,0.047 0.043,0.047 0.09,0.09 0.039,0.042 0.121,0.122 0.078,0.07 0.039,0.039 0.141,0.133 0.066,0.062 0.133,0.117 0.133,0.114 0.066,0.058 0.071,0.059 c 0,0.012 0.629,0.551 0.996,0.918 0.969,0.949 1.195,1.437 1.195,1.476 0,0.102 -0.097,0.102 -0.113,0.102 -0.074,0 -0.102,-0.02 -0.152,-0.109 -0.309,-0.489 -0.52,-0.653 -0.766,-0.653 -0.246,0 -0.367,0.153 -0.52,0.325 -0.195,0.238 -0.367,0.437 -0.707,0.437 -0.761,0 -1.23,-0.945 -1.23,-1.16 0,-0.051 0.031,-0.11 0.125,-0.11 0.09,0 0.109,0.051 0.129,0.11 0.195,0.473 0.785,0.48 0.867,0.48 0.215,0 0.406,-0.074 0.641,-0.152 0.41,-0.152 0.523,-0.152 0.789,-0.152 C 199.016,8.91 198.16,8.172 197.969,8.012 L 197.051,7.156 C 196.359,6.473 196,5.891 196,5.82 c 0,-0.101 0.102,-0.101 0.121,-0.101 0.082,0 0.102,0.019 0.164,0.129 0.238,0.359 0.539,0.632 0.867,0.632 0.235,0 0.336,-0.093 0.59,-0.386 0.176,-0.215 0.36,-0.375 0.653,-0.375 1.007,0 1.601,1.293 1.601,1.566 0,0.051 -0.043,0.102 -0.121,0.102 -0.094,0 -0.113,-0.059 -0.145,-0.133 -0.234,-0.66 -0.886,-0.852 -1.222,-0.852 -0.203,0 -0.387,0.059 -0.602,0.133 -0.344,0.129 -0.5,0.172 -0.715,0.172 -0.019,0 -0.179,0 -0.273,-0.031 z"
       style="fill:#000000;fill-opacity:1;fill-rule:nonzero;stroke:none"
       id="path88"
       inkscape:connector-curvature="0" /><path
       d="m 202.496,12.328 0.727,0 c 0.132,0 0.226,0 0.226,0.156 0,0.098 -0.094,0.098 -0.211,0.098 l -0.676,0 0.262,1.055 c 0.004,0.035 0.02,0.07 0.02,0.101 0,0.133 -0.098,0.231 -0.242,0.231 -0.18,0 -0.286,-0.121 -0.336,-0.309 -0.047,-0.176 0.046,0.164 -0.274,-1.078 l -0.722,0 c -0.137,0 -0.227,0 -0.227,-0.156 0,-0.098 0.082,-0.098 0.215,-0.098 l 0.672,0 -0.418,-1.68 c -0.043,-0.179 -0.11,-0.437 -0.11,-0.527 0,-0.422 0.36,-0.68 0.766,-0.68 0.793,0 1.238,0.997 1.238,1.09 0,0.094 -0.09,0.094 -0.113,0.094 -0.082,0 -0.094,-0.016 -0.148,-0.137 -0.2,-0.449 -0.567,-0.847 -0.954,-0.847 -0.152,0 -0.25,0.093 -0.25,0.347 0,0.074 0.028,0.223 0.039,0.293 l 0.516,2.047 z"
       style="fill:#000000;fill-opacity:1;fill-rule:nonzero;stroke:none"
       id="path90"
       inkscape:connector-curvature="0" /><path
       d="m 207.578,7.297 0.008,0.023 0.008,0.047 0.008,0.02 0.003,0.019 0.008,0.016 0.008,0.019 0.004,0.016 0.016,0.031 0.007,0.012 0.012,0.016 0.008,0.011 0.012,0.012 0.011,0.008 0.032,0.015 0.015,0.012 0.02,0.008 0.019,0.004 0.02,0.008 0.012,0 0.011,0.004 0.016,0 0.012,0.004 0.011,0 0.016,0.003 0.016,0 0.011,0.004 0.02,0 0.016,0.004 0.035,0 0.015,0.004 0.168,0 0.028,0.004 c 0.148,0 0.242,0 0.242,0.149 0,0.105 -0.086,0.105 -0.215,0.105 l -0.969,0 c -0.207,0 -0.215,-0.008 -0.304,-0.141 l -2.754,-4.066 -0.704,4.016 c -0.039,0.183 -0.039,0.191 -0.25,0.191 l -1.019,0 c -0.145,0 -0.234,0 -0.234,-0.156 0,-0.098 0.085,-0.098 0.242,-0.098 0.113,0 0.14,0 0.269,-0.019 0.141,-0.012 0.16,-0.028 0.16,-0.098 0,-0.008 0,-0.047 -0.031,-0.156 L 201.719,3.77 c -0.063,-0.243 -0.172,-0.485 -0.742,-0.508 -0.055,0 -0.149,-0.004 -0.149,-0.157 0,-0.007 0.008,-0.097 0.106,-0.097 0.214,0 0.515,0.027 0.742,0.027 0.172,0 0.586,-0.027 0.758,-0.027 0.031,0 0.14,0 0.14,0.152 0,0.098 -0.094,0.102 -0.16,0.102 -0.453,0.015 -0.453,0.199 -0.453,0.3 0,0.028 0,0.063 0.031,0.18 l 0.946,3.789 0.003,0 0.766,-4.332 c 0.023,-0.129 0.035,-0.191 0.145,-0.191 0.097,0 0.156,0.078 0.203,0.152 l 2.996,4.442 0.008,-0.004 -1.008,-4.036 c -0.055,-0.242 -0.071,-0.3 -0.625,-0.3 -0.129,0 -0.215,0 -0.215,-0.157 0,-0.007 0,-0.097 0.113,-0.097 0.137,0 0.301,0.019 0.442,0.019 0.144,0 0.308,0.008 0.449,0.008 0.199,0 0.707,-0.027 0.906,-0.027 0.043,0 0.152,0 0.152,0.152 0,0.102 -0.085,0.102 -0.23,0.102 -0.008,0 -0.141,0 -0.27,0.015 -0.164,0.012 -0.164,0.035 -0.164,0.106 0,0.047 0.02,0.113 0.028,0.156 l 0.941,3.758 z"
       style="fill:#000000;fill-opacity:1;fill-rule:nonzero;stroke:none"
       id="path92"
       inkscape:connector-curvature="0" /><path
       d="m 212.469,5.438 -3.899,0 -0.117,-1.211 0.215,0 c 0.086,0.929 0.281,0.988 1.105,0.988 0.11,0 0.289,0 0.325,-0.004 0.144,-0.012 0.156,-0.031 0.156,-0.188 l 0,-2.585 c 0,-0.165 0,-0.215 -0.547,-0.215 l -0.254,0 0,-0.223 c 0.254,0.02 0.789,0.02 1.07,0.02 0.282,0 0.817,0 1.071,-0.02 l 0,0.223 -0.254,0 c -0.547,0 -0.547,0.05 -0.547,0.215 l 0,2.585 c 0,0.149 0.012,0.176 0.145,0.188 0.042,0.004 0.214,0.004 0.328,0.004 0.828,0 1.019,-0.055 1.105,-0.988 l 0.215,0 -0.117,1.211 z"
       style="fill:#000000;fill-opacity:1;fill-rule:nonzero;stroke:none"
       id="path94"
       inkscape:connector-curvature="0" /><text
       transform="matrix(0,-1,-1,0,0,0)"
       style="font-variant:normal;font-weight:normal;font-size:16px;font-family:Arial;-inkscape-font-specification:ArialMT;writing-mode:lr-tb;fill:#000000;fill-opacity:1;fill-rule:nonzero;stroke:none"
       id="text96"
       x="-45.679688"
       y="-196"><tspan
         x="-45.679688 -41.247688 -32.38369 -27.951687 -19.135687"
         y="-196"
         sodipodi:role="line"
         id="tspan98">. . .</tspan><tspan
         x="-45.679688 -41.247688 -32.38369 -27.951687 -19.135687"
         y="-23.199997"
         sodipodi:role="line"
         id="tspan100">. . .</tspan></text>
<path
       d="m 60.34,56.102 -0.094,-0.243 -0.098,-0.246 -0.195,-0.515 -0.101,-0.262 -0.094,-0.262 -0.094,-0.258 -0.098,-0.25 -0.086,-0.246 -0.042,-0.121 -0.043,-0.117 -0.036,-0.117 -0.039,-0.11 -0.039,-0.105 -0.035,-0.105 -0.031,-0.098 -0.027,-0.094 -0.032,-0.094 -0.027,-0.086 -0.024,-0.078 -0.019,-0.078 -0.02,-0.066 -0.015,-0.067 -0.012,0 c -0.07,0.286 -0.234,0.797 -0.445,1.379 l -2.164,5.715 -0.469,1.203 -1.563,0 0,-9.582 1.079,0 0,8.563 0.015,0 c 0.082,-0.442 0.633,-1.95 0.992,-2.887 l 2.043,-5.371 1.012,0 1.832,4.805 c 0.441,1.129 0.57,1.476 0.664,1.753 0.137,0.399 0.508,1.395 0.578,1.711 l 0.016,-0.011 0,-8.563 1.078,0 0,9.582 -1.578,0 -1.789,-4.679 z"
       style="fill:#000000;fill-opacity:1;fill-rule:nonzero;stroke:none"
       id="path116"
       inkscape:connector-curvature="0" /><path
       d="m 66.391,60.781 1.227,0 0,-9.582 -1.227,0 0,9.582 z"
       style="fill:#000000;fill-opacity:1;fill-rule:nonzero;stroke:none"
       id="path118"
       inkscape:connector-curvature="0" /><path
       d="m 76.23,56.102 -0.089,-0.243 -0.098,-0.246 -0.098,-0.258 -0.101,-0.257 -0.094,-0.262 -0.098,-0.262 -0.097,-0.258 -0.094,-0.25 -0.086,-0.246 -0.043,-0.121 -0.039,-0.117 -0.043,-0.117 -0.035,-0.11 -0.039,-0.105 -0.035,-0.105 -0.032,-0.098 -0.031,-0.094 -0.027,-0.094 -0.028,-0.086 -0.046,-0.156 -0.032,-0.133 -0.015,0 c -0.067,0.286 -0.231,0.797 -0.442,1.379 l -2.164,5.715 -0.472,1.203 -1.559,0 0,-9.582 1.078,0 0,8.563 0.016,0 c 0.082,-0.442 0.633,-1.95 0.992,-2.887 l 2.043,-5.371 1.008,0 1.836,4.805 c 0.441,1.129 0.566,1.476 0.664,1.753 0.136,0.399 0.508,1.395 0.578,1.711 l 0.015,-0.011 0,-8.563 1.079,0 0,9.582 -1.579,0 -1.793,-4.679 z"
       style="fill:#000000;fill-opacity:1;fill-rule:nonzero;stroke:none"
       id="path120"
       inkscape:connector-curvature="0" /><path
       d="m 90.355,55.965 -0.003,0.265 -0.016,0.27 -0.027,0.258 -0.039,0.258 -0.051,0.25 -0.063,0.246 -0.066,0.242 -0.082,0.234 -0.086,0.227 -0.098,0.219 -0.105,0.218 -0.114,0.207 -0.125,0.2 -0.128,0.191 -0.137,0.188 -0.145,0.171 -0.152,0.168 -0.152,0.161 -0.164,0.152 -0.172,0.137 -0.172,0.132 -0.18,0.121 -0.187,0.11 -0.188,0.101 -0.195,0.09 -0.196,0.078 -0.203,0.071 -0.203,0.054 -0.207,0.043 -0.211,0.032 -0.211,0.019 -0.215,0.008 -0.011,-0.887 c 1.601,0 3.078,-1.554 3.078,-4.027 0,-2.695 -1.488,-4.379 -3.067,-4.379 -1.624,0 -3.078,1.727 -3.078,4.379 0,2.523 1.52,4.027 3.067,4.027 l 0.011,0.887 c -2.347,0 -4.304,-2.25 -4.304,-5.121 0,-2.93 2.039,-5.067 4.293,-5.067 2.304,0 4.304,2.164 4.304,5.067 z"
       style="fill:#000000;fill-opacity:1;fill-rule:nonzero;stroke:none"
       id="path122"
       inkscape:connector-curvature="0" /><path
       d="m 56.07,43.062 -0.078,0.036 -0.074,0.035 -0.145,0.058 -0.14,0.055 -0.141,0.051 -0.137,0.047 -0.136,0.039 -0.133,0.039 -0.137,0.031 -0.265,0.047 -0.137,0.02 -0.133,0.015 -0.141,0.008 -0.14,0.012 -0.141,0.004 -0.148,0 c -0.387,0 -2.567,0 -2.567,-2.024 0,-0.758 0.45,-1.25 0.836,-1.547 0.477,-0.34 0.817,-0.402 1.668,-0.57 0.559,-0.109 1.449,-0.293 1.449,-1.109 0,-1.071 -1.214,-1.071 -1.449,-1.071 -1.254,0 -2.117,0.574 -2.39,0.758 l -0.192,-1.051 c 0.492,-0.246 1.348,-0.679 2.598,-0.679 0.277,0 1.129,0 1.793,0.496 0.48,0.367 0.742,0.988 0.742,1.652 0,0.852 -0.574,1.375 -0.602,1.418 -0.605,0.543 -1.023,0.637 -1.792,0.777 -0.852,0.168 -1.559,0.325 -1.559,1.082 0,0.957 1.109,0.957 1.312,0.957 0.497,0 1.313,-0.062 2.188,-0.586 l 0.191,1 z"
       style="fill:#000000;fill-opacity:1;fill-rule:nonzero;stroke:none"
       id="path124"
       inkscape:connector-curvature="0" /><path
       d="m 63.574,43.297 -1.156,0 c -2.012,-4.914 -2.043,-5.625 -2.055,-5.981 l -0.015,0 c -0.094,1.036 -1.332,3.911 -1.391,4.047 l -0.832,1.934 -1.223,0 2.996,-6.859 c -0.187,-0.481 -0.496,-1.25 -0.558,-1.395 -0.399,-0.895 -0.664,-0.895 -0.879,-0.895 -0.242,0 -0.738,0.067 -1.203,0.247 l 0.09,-1 c 0.34,-0.079 0.777,-0.129 1.113,-0.129 0.543,0 1.113,0.191 1.746,1.765 l 3.367,8.266 z"
       style="fill:#000000;fill-opacity:1;fill-rule:nonzero;stroke:none"
       id="path126"
       inkscape:connector-curvature="0" /><path
       d="m 69.094,43.062 -0.149,0.071 -0.148,0.058 -0.141,0.055 -0.14,0.051 -0.137,0.047 -0.274,0.078 -0.132,0.031 -0.266,0.047 -0.137,0.02 -0.136,0.015 -0.137,0.008 -0.141,0.012 -0.14,0.004 -0.145,0 c -0.391,0 -2.57,0 -2.57,-2.024 0,-0.758 0.449,-1.25 0.832,-1.547 0.48,-0.34 0.82,-0.402 1.672,-0.57 0.558,-0.109 1.449,-0.293 1.449,-1.109 0,-1.071 -1.219,-1.071 -1.449,-1.071 -1.254,0 -2.117,0.574 -2.391,0.758 l -0.191,-1.051 c 0.496,-0.246 1.347,-0.679 2.597,-0.679 0.274,0 1.129,0 1.793,0.496 0.481,0.367 0.739,0.988 0.739,1.652 0,0.852 -0.571,1.375 -0.598,1.418 -0.606,0.543 -1.024,0.637 -1.793,0.777 -0.856,0.168 -1.563,0.325 -1.563,1.082 0,0.957 1.11,0.957 1.317,0.957 0.492,0 1.312,-0.062 2.187,-0.586 l 0.192,1 z"
       style="fill:#000000;fill-opacity:1;fill-rule:nonzero;stroke:none"
       id="path128"
       inkscape:connector-curvature="0" /><path
       d="m 72.41,42.398 2.18,0 0,0.899 -2.18,0 0,1.961 -1.062,0 0,-1.961 -1.344,0 0,-0.899 1.293,0 0,-4.125 c 0,-0.925 0.219,-2.007 1.285,-2.007 1.078,0 1.871,0.386 2.258,0.586 l -0.25,0.914 c -0.399,-0.328 -0.895,-0.512 -1.387,-0.512 -0.57,0 -0.793,0.465 -0.793,1.285 l 0,3.859 z"
       style="fill:#000000;fill-opacity:1;fill-rule:nonzero;stroke:none"
       id="path130"
       inkscape:connector-curvature="0" /><path
       d="m 81.688,39.82 0,0.164 -0.004,0.059 0,0.066 -0.004,0.067 -0.004,0.07 -0.004,0.074 0,0.075 -0.016,0.156 -0.015,0.164 -0.024,0.172 -0.015,0.09 -0.016,0.085 -0.016,0.09 -0.019,0.094 -0.024,0.09 -0.019,0.094 -0.031,0.09 -0.028,0.093 -0.031,0.094 -0.031,0.09 -0.035,0.094 -0.04,0.089 -0.042,0.094 -0.094,0.18 -0.051,0.09 -0.055,0.086 c -0.632,0.961 -1.578,1.129 -2.132,1.129 -1.715,0 -3.106,-1.637 -3.106,-3.629 0,-2.039 1.48,-3.664 3.332,-3.664 0.973,0 1.859,0.371 2.461,0.808 l -0.094,1 c -0.972,-0.804 -1.992,-0.867 -2.343,-0.867 -1.243,0 -2.231,1.102 -2.274,2.613 l 0.078,0.852 c 0.246,1.172 1.067,1.941 1.946,1.941 0.8,0 1.667,-0.523 1.867,-1.941 l -3.813,0 -0.078,-0.852 4.774,0 z"
       style="fill:#000000;fill-opacity:1;fill-rule:nonzero;stroke:none"
       id="path132"
       inkscape:connector-curvature="0" /><path
       d="m 93.148,41.039 0,0.199 -0.023,0.305 -0.012,0.105 -0.011,0.102 -0.02,0.105 -0.023,0.106 -0.024,0.101 -0.027,0.102 -0.035,0.098 -0.035,0.101 -0.043,0.094 -0.047,0.094 -0.055,0.09 -0.059,0.089 -0.066,0.086 -0.066,0.079 -0.079,0.078 -0.082,0.074 -0.089,0.066 -0.094,0.063 -0.102,0.058 -0.058,0.024 -0.055,0.027 -0.117,0.047 -0.063,0.02 -0.066,0.019 -0.063,0.02 -0.074,0.015 -0.066,0.016 -0.074,0.012 -0.075,0.007 -0.078,0.012 -0.078,0.004 -0.082,0.008 -0.168,0 c -0.93,0 -1.738,-0.43 -2.305,-1.266 -0.398,1.176 -1.484,1.266 -1.98,1.266 -1.109,0 -1.836,-0.633 -2.254,-1.188 l 0,1.114 -1.113,0 0,-6.953 1.203,0 0,3.781 c 0,1.051 0.422,2.301 1.562,2.301 1.442,0 1.52,-1 1.52,-1.586 l 0,-4.496 1.199,0 0,3.781 c 0,1.051 0.414,2.301 1.559,2.301 1.441,0 1.515,-1 1.515,-1.586 l 0,-4.496 1.203,0 0,4.601 z"
       style="fill:#000000;fill-opacity:1;fill-rule:nonzero;stroke:none"
       id="path134"
       inkscape:connector-curvature="0" /><g
       id="g136"
       transform="matrix(1,0,0,-1,0,80)"><path
         d="m 172,8.078 16.973,0"
         style="fill:none;stroke:#000000;stroke-width:1.60000002;stroke-linecap:butt;stroke-linejoin:miter;stroke-miterlimit:4;stroke-dasharray:none;stroke-opacity:1"
         id="path138"
         inkscape:connector-curvature="0" /></g><g
       id="g140"
       transform="matrix(1,0,0,-1,0,80)"><path
         d="m 192.668,8.078 -5.535,3.203 0,-6.402 5.535,3.199 z"
         style="fill:#000000;fill-opacity:1;fill-rule:evenodd;stroke:#000000;stroke-width:0.80000001;stroke-linecap:butt;stroke-linejoin:miter;stroke-miterlimit:4;stroke-dasharray:none;stroke-opacity:1"
         id="path142"
         inkscape:connector-curvature="0" /></g><g
       id="g144"
       transform="matrix(1,0,0,-1,0,80)"><path
         d="m 172,24.094 16.98,0"
         style="fill:none;stroke:#000000;stroke-width:1.60000002;stroke-linecap:butt;stroke-linejoin:miter;stroke-miterlimit:4;stroke-dasharray:none;stroke-opacity:1"
         id="path146"
         inkscape:connector-curvature="0" /></g><g
       id="g148"
       transform="matrix(1,0,0,-1,0,80)"><path
         d="m 192.672,24.094 -5.535,3.199 0,-6.398 5.535,3.199 z"
         style="fill:#000000;fill-opacity:1;fill-rule:evenodd;stroke:#000000;stroke-width:0.80000001;stroke-linecap:butt;stroke-linejoin:miter;stroke-miterlimit:4;stroke-dasharray:none;stroke-opacity:1"
         id="path150"
         inkscape:connector-curvature="0" /></g><g
       id="g152"
       transform="matrix(1,0,0,-1,0,80)"><path
         d="m 172,72.398 16.98,0"
         style="fill:none;stroke:#000000;stroke-width:1.60000002;stroke-linecap:butt;stroke-linejoin:miter;stroke-miterlimit:4;stroke-dasharray:none;stroke-opacity:1"
         id="path154"
         inkscape:connector-curvature="0" /></g><g
       id="g156"
       transform="matrix(1,0,0,-1,0,80)"><path
         d="m 192.672,72.398 -5.535,3.204 0,-6.403 5.535,3.199 z"
         style="fill:#000000;fill-opacity:1;fill-rule:evenodd;stroke:#000000;stroke-width:0.80000001;stroke-linecap:butt;stroke-linejoin:miter;stroke-miterlimit:4;stroke-dasharray:none;stroke-opacity:1"
         id="path158"
         inkscape:connector-curvature="0" /></g><path
       d="m 52.527,24.852 0.016,0.023 0.012,0.027 0.007,0.012 0.008,0.008 0.008,0.012 0.008,0.007 0.008,0.012 0.011,0.008 0.008,0.008 0.024,0.015 0.047,0.024 0.019,0.004 0.02,0.008 0.047,0.007 0.027,0.008 0.012,0 0.015,0.004 0.016,0 0.015,0.004 0.016,0 0.016,0.004 0.035,0 0.019,0.004 0.063,0 0.023,0.004 0.094,0 0.024,0.004 0.113,0 0,0.461 c -0.235,-0.024 -0.531,-0.032 -0.778,-0.032 -0.242,0 -0.687,0.024 -0.89,0.032 l 0,-0.461 c 0.019,0 0.461,0 0.461,-0.118 0,-0.011 -0.043,-0.109 -0.051,-0.121 l -1.125,-2.41 -1.246,2.649 0.531,0 0,0.461 c -0.324,-0.024 -1.207,-0.032 -1.219,-0.032 -0.277,0 -0.714,0.024 -1.117,0.032 l 0,-0.461 0.625,0 1.836,-3.895 -0.226,-0.473 c -0.215,-0.468 -0.528,-1.136 -1.227,-1.136 -0.137,0 -0.16,0.007 -0.234,0.039 0.086,0.039 0.312,0.176 0.312,0.519 0,0.325 -0.238,0.559 -0.566,0.559 -0.274,0 -0.563,-0.188 -0.563,-0.567 0,-0.5 0.465,-0.906 1.051,-0.906 0.758,0 1.328,0.61 1.59,1.172 l 2.105,4.481 z"
       style="fill:#000000;fill-opacity:1;fill-rule:nonzero;stroke:none"
       id="path160"
       inkscape:connector-curvature="0" /><path
       d="m 61.516,24.371 0.082,0 0.015,0.004 0.028,0 0.015,0.004 0.012,0 0.016,0.004 0.015,0 0.047,0.015 0.035,0.024 0.008,0.004 0.027,0.027 0.004,0.008 0,0.004 0.004,0.004 0.004,0.008 0.004,0.003 0,0.008 0.008,0.016 0,0.012 0.004,0.007 0,0.016 0.004,0.008 0,0.019 c 0,0.196 -0.188,0.196 -0.325,0.196 l -5.878,0 c -0.137,0 -0.321,0 -0.321,-0.196 0,-0.195 0.184,-0.195 0.332,-0.195 l 5.86,0 z"
       style="fill:#000000;fill-opacity:1;fill-rule:nonzero;stroke:none"
       id="path162"
       inkscape:connector-curvature="0" /><path
       d="m 61.523,22.465 0.028,0 0.027,0.004 0.051,0 0.016,0.004 0.027,0 0.016,0.007 0.011,0 0.024,0.008 0.015,0.004 0.012,0.004 0.008,0.008 0.012,0.004 0.011,0.008 0.008,0.007 0.012,0.008 0.008,0.012 0.011,0.012 0,0.007 0.004,0.004 0.004,0.008 0.004,0.004 0,0.008 0.004,0.008 0.004,0.004 0,0.015 0.004,0.008 0,0.016 0.004,0.008 0,0.019 c 0,0.195 -0.188,0.195 -0.332,0.195 l -5.86,0 c -0.148,0 -0.332,0 -0.332,-0.195 0,-0.199 0.184,-0.199 0.321,-0.199 l 5.878,0 z"
       style="fill:#000000;fill-opacity:1;fill-rule:nonzero;stroke:none"
       id="path164"
       inkscape:connector-curvature="0" /><path
       d="m 70.871,27.43 1.059,0 0,0.461 c -0.375,-0.028 -1.332,-0.028 -1.758,-0.028 -0.422,0 -1.383,0 -1.754,0.028 l 0,-0.461 1.059,0 0,-2.535 -3.153,0 0,2.535 1.063,0 0,0.461 c -0.371,-0.028 -1.332,-0.028 -1.758,-0.028 -0.422,0 -1.379,0 -1.754,0.028 l 0,-0.461 1.059,0 0,-5.805 -1.059,0 0,-0.461 c 0.375,0.031 1.332,0.031 1.754,0.031 0.426,0 1.387,0 1.758,-0.031 l 0,0.461 -1.063,0 0,2.805 3.153,0 0,-2.805 -1.059,0 0,-0.461 c 0.371,0.031 1.332,0.031 1.754,0.031 0.426,0 1.383,0 1.758,-0.031 l 0,0.461 -1.059,0 0,5.805 z"
       style="fill:#000000;fill-opacity:1;fill-rule:nonzero;stroke:none"
       id="path166"
       inkscape:connector-curvature="0" /><path
       d="m 74.398,24.047 -0.035,0.004 -0.07,0.015 -0.078,0.016 -0.043,0.008 -0.082,0.019 -0.082,0.024 -0.086,0.023 -0.156,0.063 -0.078,0.039 -0.036,0.019 -0.031,0.024 -0.031,0.019 -0.031,0.028 -0.028,0.023 -0.023,0.027 -0.028,0.032 -0.019,0.031 -0.02,0.035 -0.015,0.031 -0.004,0.02 -0.008,0.019 -0.004,0.016 -0.008,0.039 0,0.024 -0.004,0.019 0,0.024 c 0,0.605 0.914,0.605 1.102,0.605 0.734,0 1.105,-0.285 1.156,-0.82 0.008,-0.149 0.02,-0.2 0.223,-0.2 0.238,0 0.238,0.051 0.238,0.274 l 0,0.785 c 0,0.188 0,0.273 -0.179,0.273 -0.036,0 -0.059,0 -0.438,-0.183 -0.258,0.125 -0.602,0.183 -0.992,0.183 -0.293,0 -1.809,0 -1.809,-1.281 0,-0.394 0.199,-0.66 0.395,-0.824 0.394,-0.348 0.765,-0.406 1.519,-0.539 0.356,-0.063 1.09,-0.188 1.09,-0.77 0,-0.734 -0.898,-0.734 -1.117,-0.734 -1.039,0 -1.297,0.715 -1.414,1.141 -0.051,0.136 -0.098,0.136 -0.234,0.136 -0.239,0 -0.239,-0.062 -0.239,-0.285 l 0,-1.07 c 0,-0.184 0,-0.274 0.18,-0.274 0.066,0 0.086,0 0.293,0.145 0.008,0 0.226,0.148 0.254,0.168 0.453,-0.313 0.965,-0.313 1.16,-0.313 0.301,0 1.816,0 1.816,1.43 0,0.426 -0.199,0.766 -0.543,1.039 -0.379,0.285 -0.699,0.344 -1.461,0.473 z"
       style="fill:#000000;fill-opacity:1;fill-rule:nonzero;stroke:none"
       id="path168"
       inkscape:connector-curvature="0" /><path
       d="m 80.312,21.887 0,0.14 -0.003,0.133 -0.004,0.129 -0.008,0.125 -0.012,0.125 -0.015,0.117 -0.02,0.114 -0.02,0.109 -0.027,0.109 -0.027,0.102 -0.035,0.101 -0.036,0.098 -0.043,0.098 -0.046,0.093 -0.051,0.094 -0.027,0.043 -0.032,0.047 c -0.211,0.316 -0.633,0.59 -1.187,0.59 l 0,-0.192 c 0.375,0 0.73,-0.226 0.855,-0.624 0.11,-0.372 0.114,-0.864 0.114,-1.465 0,-0.504 0,-1.012 -0.086,-1.446 -0.141,-0.621 -0.606,-0.773 -0.883,-0.773 -0.313,0 -0.731,0.184 -0.867,0.746 -0.098,0.406 -0.098,0.969 -0.098,1.473 0,0.504 0,1.027 0.101,1.402 0.145,0.539 0.586,0.687 0.864,0.687 l 0,0.192 c -1.59,0 -1.59,-1.871 -1.59,-2.367 0,-0.492 0,-2.328 1.59,-2.328 1.593,0 1.593,1.836 1.593,2.328 z"
       style="fill:#000000;fill-opacity:1;fill-rule:nonzero;stroke:none"
       id="path170"
       inkscape:connector-curvature="0" /><path
       d="m 85.723,23.418 2.738,0 c 0.137,0 0.324,0 0.324,0.195 0,0.199 -0.187,0.199 -0.324,0.199 l -2.738,0 0,2.747 c 0,0.136 0,0.324 -0.196,0.324 -0.195,0 -0.195,-0.188 -0.195,-0.324 l 0,-2.747 -2.746,0 c -0.137,0 -0.324,0 -0.324,-0.199 0,-0.195 0.187,-0.195 0.324,-0.195 l 2.746,0 0,-2.746 c 0,-0.137 0,-0.324 0.195,-0.324 0.196,0 0.196,0.187 0.196,0.324 l 0,2.746 z"
       style="fill:#000000;fill-opacity:1;fill-rule:nonzero;stroke:none"
       id="path172"
       inkscape:connector-curvature="0" /><path
       d="m 91.004,24.656 0,-3.031 -0.68,0 0,-0.461 c 0.281,0.008 0.867,0.031 1.238,0.031 0.387,0 0.965,-0.023 1.239,-0.031 l 0,0.461 -0.676,0 0,2.047 c 0,1.074 0.84,1.551 1.461,1.551 0.332,0 0.535,-0.203 0.535,-0.95 l 0,-2.648 -0.676,0 0,-0.461 c 0.278,0.008 0.867,0.031 1.239,0.031 0.382,0 0.964,-0.023 1.238,-0.031 l 0,0.461 -0.68,0 0,2.543 c 0,1.027 -0.527,1.41 -1.508,1.41 -0.941,0 -1.461,-0.558 -1.718,-1.062 l 0,1.062 -1.692,-0.082 0,-0.461 c 0.614,0 0.68,0 0.68,-0.379 z"
       style="fill:#000000;fill-opacity:1;fill-rule:nonzero;stroke:none"
       id="path174"
       inkscape:connector-curvature="0" /><g
       id="g4389"
       transform="matrix(0,2.257429,2.257429,0,-164.38418,-73.114469)"><g
         word-spacing="normal"
         letter-spacing="normal"
         font-size-adjust="none"
         font-stretch="normal"
         font-weight="normal"
         font-variant="normal"
         font-style="normal"
         stroke-miterlimit="10.433"
         xml:space="preserve"
         transform="matrix(0.14285714,0,0,-0.14285714,-25,202.5)"
         id="content"
         style="font-style:normal;font-variant:normal;font-weight:normal;font-stretch:normal;letter-spacing:normal;word-spacing:normal;text-anchor:start;fill:none;fill-opacity:1;fill-rule:evenodd;stroke:#000000;stroke-linecap:butt;stroke-linejoin:miter;stroke-miterlimit:10.43299961;stroke-dasharray:none;stroke-dashoffset:0;stroke-opacity:1"><path
           id="path4392"
           d="m 464.64,440.78 -4.43,0 0,-34.58 20.17,0 0,3.28 c -4.44,-0.05 -8.86,-0.09 -13.3,-0.09 l -2.44,0 z"
           inkscape:connector-curvature="0"
           style="fill:#000000;stroke-width:0" /><path
           id="path4394"
           d="m 501.3,440.78 -4.39,0 -13,-34.58 3.68,0 3.85,10.16 1.04,2.79 3.24,9.02 c 1.05,2.94 2.59,7.17 2.94,9.01 l 0.04,0 c 0.11,-0.68 0.46,-1.93 1.6,-5.23 l 4.53,-12.8 -12.35,0 -1.04,-2.79 14.5,0 3.78,-10.16 4.58,0 z"
           inkscape:connector-curvature="0"
           style="fill:#000000;stroke-width:0" /><path
           id="path4396"
           d="m 542.16,423.89 -0.33,-0.87 -0.35,-0.9 -0.35,-0.92 -0.36,-0.94 -0.35,-0.94 -0.35,-0.94 -0.35,-0.93 -0.33,-0.91 -0.32,-0.89 -0.15,-0.43 -0.15,-0.42 -0.15,-0.42 -0.13,-0.4 -0.14,-0.38 -0.12,-0.38 -0.12,-0.36 -0.11,-0.34 -0.1,-0.33 -0.1,-0.31 -0.08,-0.29 -0.08,-0.27 -0.06,-0.25 -0.06,-0.23 -0.05,0 c -0.25,1.03 -0.84,2.87 -1.59,4.97 l -7.81,20.62 -1.71,4.35 -5.62,0 0,-34.58 3.89,0 0,30.89 0.05,0 c 0.29,-1.59 2.28,-7.03 3.57,-10.41 l 7.38,-19.39 3.64,0 6.63,17.35 c 1.59,4.07 2.04,5.32 2.38,6.32 0.5,1.44 1.85,5.04 2.1,6.18 l 0.05,-0.05 0,-30.89 3.89,0 0,34.58 -5.69,0 z"
           inkscape:connector-curvature="0"
           style="fill:#000000;stroke-width:0" /><path
           id="path4398"
           d="m 578.09,440.78 -4.39,0 -13,-34.58 3.69,0 3.84,10.16 1.05,2.79 3.24,9.02 c 1.04,2.94 2.59,7.17 2.93,9.01 l 0.05,0 c 0.11,-0.68 0.45,-1.93 1.59,-5.23 l 4.53,-12.8 -12.34,0 -1.05,-2.79 14.5,0 3.79,-10.16 4.57,0 z"
           inkscape:connector-curvature="0"
           style="fill:#000000;stroke-width:0" /></g></g></g></svg>